<?xml version="1.0" encoding="utf-8"?>
<!-- Generator: Adobe Illustrator 25.3.1, SVG Export Plug-In . SVG Version: 6.00 Build 0)  -->
<svg version="1.1" id="Layer_1" xmlns="http://www.w3.org/2000/svg" xmlns:xlink="http://www.w3.org/1999/xlink" x="0px" y="0px"
	 viewBox="0 0 697.1 638.6" style="enable-background:new 0 0 697.1 638.6;" xml:space="preserve">
<style type="text/css">
	.st0{fill:url(#SVGID_1_);}
	.st1{fill:#1A1A1A;}
	.st2{fill:#F4AE8C;}
	.st3{fill:#FABB98;}
	.st4{fill:#333333;}
	.st5{fill:none;stroke:#E09B80;stroke-width:3;stroke-linecap:round;stroke-miterlimit:10;}
	.st6{fill:none;stroke:#333333;stroke-width:4;stroke-linecap:round;stroke-miterlimit:10;}
	.st7{fill:#89BB98;}
	.st8{fill:none;}
	.st9{fill:none;stroke:#FFFFFF;stroke-width:2;stroke-miterlimit:10;}
</style>
<linearGradient id="SVGID_1_" gradientUnits="userSpaceOnUse" x1="559.3099" y1="540.9255" x2="28.5135" y2="95.5344">
	<stop  offset="0" style="stop-color:#8611C0"/>
	<stop  offset="0.1726" style="stop-color:#7C1BC6"/>
	<stop  offset="0.4644" style="stop-color:#6234D6"/>
	<stop  offset="0.8375" style="stop-color:#375EEF"/>
	<stop  offset="1" style="stop-color:#2272FC"/>
</linearGradient>
<path class="st0" d="M134.7,638.6c0,0,58.3-122,5.3-180.7s-99.4-114.4-54-147.2s132.6-16.1,95.6-75.2
	c-21.4-34.2-63.6-57.4-74.1-97.7C91.9,77,148.7,43,198.4,32.1c53.1-11.7,109.2-11.1,163.1-6.5c52.1,4.5,106.8,12.3,155.3,32.7
	c101.3,42.5,17,136,0,199.7c-17,63.7,111.7,118.4,108.9,193c-2.8,74.6-73.9,187.7-73.9,187.7H134.7z"/>
<path d="M172.2,381C172.2,381,54,639.1,0,639.1h119l75.9-82L172.2,381z"/>
<path class="st1" d="M489.9,324.3c-8.5-2.2-42-0.4-48.7-0.3l0,0c2.6-9.9-15-15.9-17.5-19.3c-2.5-3.3,2.5-14.1,2.5-14.1l0,0
	c4.6-9.4,6.9-18.6,3.7-25.7C413.5,228,323.4,253,323.4,253l-37.9,7.4c0,0-54.9-1-63.3,26.1c-2.9,9.4-1.1,18.8,2.4,27
	c1.2,3.2,2.7,10-3.1,21.8c-1.8,3.6-2.4,6-2.2,7.6c-14.3,4.1-32.3,14.2-47,38c-15.9,25.8-9.8,60.9-0.8,87.6
	c11,32.5,15.5,66.9,13.2,101.1l-9.7,69.5h313l8.1-31C496,608.1,555.2,341.2,489.9,324.3z"/>
<path class="st2" d="M281.2,245.1c-0.1-0.1,17.6,97.7-28.7,99c-21,21.6,72.2,58,132.2-6.6c30.6-33,21.4-16.8,9.1-18.2
	c-36.9,19.8-45.3-74.6-45.3-74.6S317.3,197.7,281.2,245.1z"/>
<path class="st3" d="M383.9,169.1c0,25.4,0.6,31.9-10.9,51.4c-19.1,32.6-39.3,57.6-76,57.6c-36.4,0-64.7-24-77.1-58.7
	c-7.1-20-17.2-119.5-17.2-145.2c0-67.7,54.7,7.5,111.1-8.1C367.4,51.3,383.9,101.4,383.9,169.1z"/>
<path class="st1" d="M129.9,15.6"/>
<path d="M195.4,19.7c-21-2.2-19.7,11.9-16.9,32.6c3.4,24.9,14.6,52.2,47.3,57.2c62.4,9.5,94-22.9,107.2,1.6s32.4,58,51,58
	c0.2,0-2.4,14.5-0.5,12.5c2.2-2.3,1.1,1.4,1.6-1.8c0,0,25.9,20.4,17-115.8c-1.7-25.6-20.5-47.3-45.2-55.2c-16.6-5.3-37.7-7.4-62.4,0
	C263.6,18.2,216.3,22,195.4,19.7z"/>
<path class="st3" d="M377.9,138.4c0,0-2.6,40.8-10.3,30.9c-10.1-12.9-12.5,14.9-0.4,15.1s31.2,12.3,34.6-14.9
	C405.2,142.2,401,119.1,377.9,138.4z"/>
<circle class="st4" cx="303.1" cy="168.5" r="4.3"/>
<circle class="st4" cx="251.2" cy="172.8" r="4.3"/>
<path class="st5" d="M270.2,168.5c1,9.8-0.4,19.5-1.3,29.3c-0.3,1.8-0.2,3.5,0.1,5.3c1.4,5.6,10.1,7.5,13.8,3"/>
<path class="st5" d="M272.8,232.6c6.7,3.2,14.5,3.9,21.4,0.8c6.1-2.8,11.9-8.8,12.2-15.7"/>
<line class="st6" x1="234.4" y1="159.3" x2="259.1" y2="151.9"/>
<line class="st6" x1="289.8" y1="141.1" x2="320.3" y2="146.9"/>
<path d="M211.6,99.8c0,0,2.3,89.3,0,75.6c-1.4-8.7-14.2-85.9-14.2-85.9L211.6,99.8z"/>
<path class="st7" d="M471.7,342.8"/>
<path class="st7" d="M471.7,342.8"/>
<path class="st2" d="M647.6,154.8c0,0-12-31.1-15.8-37.4s1.9-7.5,5.4-5.3c3.4,2.2,6.7,15.7,11.3,16.1c4.6,0.4-1.3-49.6,4.9-50
	c5.4-0.4,3.1,30.3,6.7,31.9c3.6,1.6,3.9-37.8,9.9-37.7c5.6,0.2-2,38,1.7,39c3.7,0.9,5.2-33.9,11.4-32.9c4.1,0.6-4.8,34.6-1.1,35.5
	c3.8,1,5.2-23.3,9.8-22.6c3.8,0.5-2.7,31.3-10,54.8s-5,42.3-5,42.3l-21.4,3.1C655.4,191.6,654.4,169.9,647.6,154.8z"/>
<path class="st1" d="M489.9,324.3c13.3,0,49.9,11.1,64.9,12.9s31.1-1.1,42.8-11.2c10.1-8.7,15.9-21.8,20.9-34.6
	c14.7-38,25.5-78.1,33.9-118.1H677c1.9,0,6.1,61.9,6.4,66.4c1.5,22.4,3.2,44.8,2.3,67.3c-0.8,21.7,1.8,45.2-6.6,65.7
	c-7.1,17.4-21.5,30.1-36.5,40.3c-26.5,18-102.4,32.1-129.3,49.3"/>
<path class="st1" d="M274.8,294.8c0,0-35.2,11.4-3,40.3c32.2,29,44.2,60,44.2,60l-70.2,43.3L233.4,326L274.8,294.8z"/>
<path class="st1" d="M354.2,281.6c0,0,25.7,4.5,18.7,26.5s-92,83-92,83l52,39l87.6-74.2l-7.5-35l-25.1-31.8L354.2,281.6z"/>
<path class="st5" d="M387.1,150.6c0,0,13.1,10,2.8,19.6"/>
<line class="st5" x1="393.6" y1="159.4" x2="388.1" y2="161.3"/>
<rect x="-152.9" y="941.7" class="st8" width="1.4" height="5.5"/>
<path class="st9" d="M391.9,178.2c0,0,1.4,18.1-4.8,7.9"/>
<g id="R7gtz4_1_">
	
		<image style="overflow:visible;enable-background:new    ;" width="800" height="600" id="R7gtz4" xlink:href="8FA3F8ED8E1E179F.jpg"  transform="matrix(1 0 0 1 1220.1 373.6)">
	</image>
</g>
</svg>
