<?xml version="1.0" encoding="utf-8"?>
<!-- Generator: Adobe Illustrator 25.3.1, SVG Export Plug-In . SVG Version: 6.00 Build 0)  -->
<svg version="1.1" id="Layer_1" xmlns="http://www.w3.org/2000/svg" xmlns:xlink="http://www.w3.org/1999/xlink" x="0px" y="0px"
	 viewBox="0 0 1423.5 245.1" style="enable-background:new 0 0 1423.5 245.1;" xml:space="preserve">
<style type="text/css">
	.st0{fill:#FFFFFF;}
	.st1{fill:#FFFFFF;stroke:#FFFFFF;stroke-width:27;stroke-miterlimit:10;}
</style>
<path class="st0" d="M136.5,45.5v31.2H62v37.1h64.7v30.5H62v41.3h74.7l-2.6,31.4H26.5V45.5H136.5z"/>
<path class="st0" d="M344.3,108.3l-37.1,3.2c-4.6-24.3-21.8-37.1-45.4-37.1c-30.3,0-50.2,22-50.2,56.9c0,37.1,22,56.9,50.2,56.9
	c23.4,0,40.8-12.6,45.4-36.5l37.1,3.2c-6.6,40.1-39.9,64.7-81.4,64.7c-50.2,0-87.4-33-87.4-88.3c0-55.5,36.9-88.3,87.4-88.3
	C304.4,43,338.1,67.7,344.3,108.3z"/>
<path class="st0" d="M480.9,157.8c0,37.1-26.8,61.7-63.1,61.7s-63.1-24.5-63.1-61.7c0-37.4,26.8-61.7,63.1-61.7
	S480.9,120.5,480.9,157.8z M388.8,157.8c0,20.6,11.9,32.8,29.1,32.8s29.1-12.2,29.1-32.8c0-20.9-11.9-33-29.1-33
	S388.8,137,388.8,157.8z"/>
<path class="st0" d="M587.1,134.4l-33.5,1.8c-0.5-8.5-4.8-14.4-14.9-14.4c-8.9,0-13.8,3.7-13.8,10.1c0,8.3,8.9,9.4,23.2,13.1
	c23.8,6.2,40.4,13.5,40.4,35.1c0,24.1-17.7,39.4-48.4,39.4c-30.5,0-48.1-13.8-50.7-38.5l33.5-1.8c0.7,8.7,5.7,14.7,17.4,14.7
	c8.9,0,14.9-3.9,14.9-10.8c0-7.1-4.6-9.4-21.6-13.5c-25.2-6.4-42.2-11.7-42.2-36c0-22.7,17.9-37.4,47.5-37.4
	C569.2,96.2,584.8,112.4,587.1,134.4z"/>
<path class="st0" d="M714.8,142l-32.8,2.8c-1.6-12.2-10.5-19.9-23.4-19.9c-15.6,0-26.8,11.9-26.8,33c0,20.9,11.2,32.8,26.8,32.8
	c13.1,0,21.8-7.3,23.6-19.3l32.6,3c-4.6,28-27.1,45.2-56.2,45.2c-34.9,0-60.8-22.9-60.8-61.7c0-39,25.7-61.7,60.8-61.7
	C687.5,96.2,710.5,113.4,714.8,142z"/>
<path class="st0" d="M849.9,157.8c0,37.1-26.8,61.7-63.1,61.7c-36.2,0-63.1-24.5-63.1-61.7c0-37.4,26.8-61.7,63.1-61.7
	C823,96.2,849.9,120.5,849.9,157.8z M757.7,157.8c0,20.6,11.9,32.8,29.1,32.8c17.2,0,29.1-12.2,29.1-32.8c0-20.9-11.9-33-29.1-33
	C769.6,124.8,757.7,137,757.7,157.8z"/>
<path class="st0" d="M899.2,38.8V217h-33.5V38.8H899.2z"/>
<path class="st0" d="M956,38.8V217h-33.5V38.8H956z"/>
<path class="st0" d="M1084.4,98.5V217h-31.6v-11.9c-4.6,7.3-14,14.4-30.7,14.4c-27.3,0-43.8-17.7-43.8-46.5V98.5h33.5v67.4
	c0,14.4,6,22.5,19,22.5c12.8,0,20.2-9.6,20.2-22.9v-67H1084.4z"/>
<path class="st0" d="M1218.1,168.4h-81.4c0.7,14.7,9.6,24.1,24.8,24.1c11.7,0,19.3-4.8,21.8-13.1l33.7,1.6
	c-4.1,22.5-26.8,38.5-54.6,38.5c-36.2,0-61.2-23.6-61.2-61.7c0-38.3,25-61.7,60.3-61.7c34.2,0,56.6,22,56.6,58.9L1218.1,168.4
	L1218.1,168.4z M1136.7,146.1h47.7c-0.7-14.4-8-23.8-23.2-23.8C1147,122.3,1137.6,131,1136.7,146.1z"/>
<path class="st0" d="M1268.3,38.8V217h-33.5V38.8H1268.3z"/>
<path class="st0" d="M1387.3,143.8V217H1355v-9.6c-6.6,6.9-16.7,12.2-30.3,12.2c-23.8,0-39.4-12.2-39.4-35.1
	c0-26.4,22.2-34.9,47.5-36l21.1-1.1v-4.6c0-11.9-5-18.3-15.4-18.3c-11.5,0-16.5,7.8-16.5,15.6l-33.5-1.4c0-20.9,19-42.4,49.5-42.4
	C1369.9,96.2,1387.3,112.7,1387.3,143.8z M1353.8,169.3l-17.9,1.1c-10.1,0.5-17.2,3.9-17.2,12.4c0,7.8,5.7,10.8,13.8,10.8
	c12.2,0,21.3-6.6,21.3-19.3L1353.8,169.3L1353.8,169.3z"/>
<line class="st1" x1="212.6" y1="22.7" x2="120.8" y2="226.9"/>
</svg>
